<svg id="canvas" width="1080" height="1080" viewBox="0 0 1080 1080" style="transform-origin: center center;"><rect width="1080" height="1080" fill="#FFFFFF"></rect><clipPath id="canvasClip"><rect width="1080" height="1080"></rect></clipPath><g opacity="1" transform="rotate(270, 540, 540)" clip-path="url(#canvasClip)"><g transform="translate(440, 520) rotate(270) scale(0.4481792717086835) translate(-89.25, -89.25)" style="cursor: pointer;"><rect x="0" y="0" width="178.5" height="178.5" fill="#E3EA00"></rect></g><g transform="translate(920, 40) rotate(0) scale(0.4481792717086835) translate(-89.25, -89.25)" style="cursor: pointer;"><rect x="0" y="0" width="178.5" height="178.5" fill="#000000"></rect></g><g transform="translate(680, -200) rotate(0) scale(0.4481792717086835) translate(-89.25, -89.25)" style="cursor: pointer;"><rect x="0" y="0" width="178.5" height="178.5" fill="#D5B4FB"></rect></g><g transform="translate(40, 200) rotate(180) scale(0.4481792717086835) translate(-89.25, -89.25)" style="cursor: pointer;"><rect x="0" y="0" width="178.5" height="178.5" fill="#000000"></rect></g><g transform="translate(920, -120) rotate(90) scale(0.4481792717086835) translate(-89.25, -89.25)" style="cursor: pointer;"><path d="M0,0 L0,178.5 L178.5,178.5 C178.5,80 98.5,0 0,0 Z" fill="#D5B4FB"></path></g><g transform="translate(40, -360) rotate(180) scale(0.4481792717086835) translate(-89.25, -89.25)" style="cursor: pointer;"><path d="M0,0 L0,178.5 L178.5,178.5 C178.5,80 98.5,0 0,0 Z" fill="#EFEEEA"></path></g><g transform="translate(520, -360) rotate(0) scale(0.4481792717086835) translate(-89.25, -89.25)" style="cursor: pointer;"><path d="M0,0 L0,178.5 L178.5,178.5 C178.5,80 98.5,0 0,0 Z" fill="#EFEEEA"></path></g><g transform="translate(680, 200) rotate(270) scale(0.4481792717086835) translate(-89.25, -89.25)" style="cursor: pointer;"><path d="M0,0 L0,178.5 L178.5,178.5 C178.5,80 98.5,0 0,0 Z" fill="#283287"></path></g><g transform="translate(840, 680) rotate(0) scale(0.4481792717086835) translate(-89.25, -89.25)" style="cursor: pointer;"><path d="M0,0 L0,178.5 L178.5,178.5 C178.5,80 98.5,0 0,0 Z" fill="#283287"></path></g><g transform="translate(280, 280) rotate(180) scale(0.4481792717086835) translate(-89.25, -89.25)" style="cursor: pointer;"><rect x="0" y="0" width="178.5" height="178.5" fill="#000000"></rect></g><g transform="translate(360, 440) rotate(90) scale(0.4481792717086835) translate(-89.25, -89.25)" style="cursor: pointer;"><path d="M0,0 L0,178.5 L178.5,178.5 C178.5,80 98.5,0 0,0 Z" fill="#283287"></path></g><g transform="translate(520, 520) rotate(180) scale(0.4481792717086835) translate(-89.25, -89.25)" style="cursor: pointer;"><rect x="0" y="0" width="178.5" height="178.5" fill="#EFEEEA"></rect></g><g transform="translate(1000, -280) rotate(270) scale(0.4481792717086835) translate(-89.25, -89.25)" style="cursor: pointer;"><path d="M0,0 L0,178.5 L178.5,178.5 C178.5,80 98.5,0 0,0 Z" fill="#283287"></path></g><g transform="translate(-40, 600) rotate(180) scale(0.4481792717086835) translate(-89.25, -89.25)" style="cursor: pointer;"><path d="M0,0 L0,178.5 L178.5,178.5 C178.5,80 98.5,0 0,0 Z" fill="#283287"></path></g><g transform="translate(40, 280) rotate(270) scale(0.4481792717086835) translate(-89.25, -89.25)" style="cursor: pointer;"><rect x="0" y="0" width="178.5" height="178.5" fill="#E3EA00"></rect></g><g transform="translate(520, 200) rotate(90) scale(0.4481792717086835) translate(-89.25, -89.25)" style="cursor: pointer;"><path d="M0,0 L0,178.5 L178.5,178.5 C178.5,80 98.5,0 0,0 Z" fill="#E3EA00"></path></g><g transform="translate(600, 680) rotate(270) scale(0.4481792717086835) translate(-89.25, -89.25)" style="cursor: pointer;"><path d="M0,0 L0,178.5 L178.5,178.5 C178.5,80 98.5,0 0,0 Z" fill="#283287"></path></g><g transform="translate(600, -40) rotate(0) scale(0.4481792717086835) translate(-89.25, -89.25)" style="cursor: pointer;"><path d="M0,0 L0,178.5 L178.5,178.5 C178.5,80 98.5,0 0,0 Z" fill="#D5B4FB"></path></g><g transform="translate(760, 120) rotate(0) scale(0.4481792717086835) translate(-89.25, -89.25)" style="cursor: pointer;"><rect x="0" y="0" width="178.5" height="178.5" fill="#000000"></rect></g><g transform="translate(360, -280) rotate(180) scale(0.4481792717086835) translate(-89.25, -89.25)" style="cursor: pointer;"><path d="M0,0 L0,178.5 L178.5,178.5 C178.5,80 98.5,0 0,0 Z" fill="#EFEEEA"></path></g><g transform="translate(360, 40) rotate(0) scale(0.4481792717086835) translate(-89.25, -89.25)" style="cursor: pointer;"><path d="M0,0 L0,178.5 L178.5,178.5 C178.5,80 98.5,0 0,0 Z" fill="#EFEEEA"></path></g><g transform="translate(-40, 40) rotate(0) scale(0.4481792717086835) translate(-89.25, -89.25)" style="cursor: pointer;"><path d="M0,0 L0,178.5 L178.5,178.5 C178.5,80 98.5,0 0,0 Z" fill="#E3EA00"></path></g><g transform="translate(760, 40) rotate(90) scale(0.4481792717086835) translate(-89.25, -89.25)" style="cursor: pointer;"><path d="M0,0 L0,178.5 L178.5,178.5 C178.5,80 98.5,0 0,0 Z" fill="#283287"></path></g><g transform="translate(520, 440) rotate(90) scale(0.4481792717086835) translate(-89.25, -89.25)" style="cursor: pointer;"><path d="M0,0 L0,178.5 L178.5,178.5 C178.5,80 98.5,0 0,0 Z" fill="#E3EA00"></path></g><g transform="translate(760, 360) rotate(180) scale(0.4481792717086835) translate(-89.25, -89.25)" style="cursor: pointer;"><rect x="0" y="0" width="178.5" height="178.5" fill="#000000"></rect></g><g transform="translate(1000, -40) rotate(0) scale(0.4481792717086835) translate(-89.25, -89.25)" style="cursor: pointer;"><path d="M0,0 L0,178.5 L178.5,178.5 C178.5,80 98.5,0 0,0 Z" fill="#000000"></path></g><g transform="translate(680, 40) rotate(270) scale(0.4481792717086835) translate(-89.25, -89.25)" style="cursor: pointer;"><rect x="0" y="0" width="178.5" height="178.5" fill="#EFEEEA"></rect></g><g transform="translate(120, 600) rotate(270) scale(0.4481792717086835) translate(-89.25, -89.25)" style="cursor: pointer;"><path d="M0,0 L0,178.5 L178.5,178.5 C178.5,80 98.5,0 0,0 Z" fill="#283287"></path></g><g transform="translate(360, -360) rotate(0) scale(0.4481792717086835) translate(-89.25, -89.25)" style="cursor: pointer;"><path d="M0,0 L0,178.5 L178.5,178.5 C178.5,80 98.5,0 0,0 Z" fill="#E3EA00"></path></g><g transform="translate(520, 680) rotate(0) scale(0.4481792717086835) translate(-89.25, -89.25)" style="cursor: pointer;"><path d="M0,0 L0,178.5 L178.5,178.5 C178.5,80 98.5,0 0,0 Z" fill="#EFEEEA"></path></g><g transform="translate(-40, -280) rotate(270) scale(0.4481792717086835) translate(-89.25, -89.25)" style="cursor: pointer;"><path d="M0,0 L0,178.5 L178.5,178.5 C178.5,80 98.5,0 0,0 Z" fill="#000000"></path></g><g transform="translate(200, -200) rotate(270) scale(0.4481792717086835) translate(-89.25, -89.25)" style="cursor: pointer;"><rect x="0" y="0" width="178.5" height="178.5" fill="#EFEEEA"></rect></g><g transform="translate(600, -360) rotate(90) scale(0.4481792717086835) translate(-89.25, -89.25)" style="cursor: pointer;"><path d="M0,0 L0,178.5 L178.5,178.5 C178.5,80 98.5,0 0,0 Z" fill="#D5B4FB"></path></g><g transform="translate(120, -200) rotate(0) scale(0.4481792717086835) translate(-89.25, -89.25)" style="cursor: pointer;"><path d="M0,0 L0,178.5 L178.5,178.5 C178.5,80 98.5,0 0,0 Z" fill="#EFEEEA"></path></g><g transform="translate(280, 200) rotate(270) scale(0.4481792717086835) translate(-89.25, -89.25)" style="cursor: pointer;"><rect x="0" y="0" width="178.5" height="178.5" fill="#000000"></rect></g><g transform="translate(120, 280) rotate(90) scale(0.4481792717086835) translate(-89.25, -89.25)" style="cursor: pointer;"><rect x="0" y="0" width="178.5" height="178.5" fill="#EFEEEA"></rect></g><g transform="translate(840, 360) rotate(0) scale(0.4481792717086835) translate(-89.25, -89.25)" style="cursor: pointer;"><path d="M0,0 L0,178.5 L178.5,178.5 C178.5,80 98.5,0 0,0 Z" fill="#EFEEEA"></path></g><g transform="translate(520, -280) rotate(180) scale(0.4481792717086835) translate(-89.25, -89.25)" style="cursor: pointer;"><rect x="0" y="0" width="178.5" height="178.5" fill="#D5B4FB"></rect></g><g transform="translate(1000, -200) rotate(180) scale(0.4481792717086835) translate(-89.25, -89.25)" style="cursor: pointer;"><rect x="0" y="0" width="178.5" height="178.5" fill="#EFEEEA"></rect></g><g transform="translate(440, -120) rotate(270) scale(0.4481792717086835) translate(-89.25, -89.25)" style="cursor: pointer;"><rect x="0" y="0" width="178.5" height="178.5" fill="#283287"></rect></g><g transform="translate(120, -280) rotate(270) scale(0.4481792717086835) translate(-89.25, -89.25)" style="cursor: pointer;"><rect x="0" y="0" width="178.5" height="178.5" fill="#000000"></rect></g><g transform="translate(440, -360) rotate(0) scale(0.4481792717086835) translate(-89.25, -89.25)" style="cursor: pointer;"><path d="M0,0 L0,178.5 L178.5,178.5 C178.5,80 98.5,0 0,0 Z" fill="#000000"></path></g><g transform="translate(600, 40) rotate(0) scale(0.4481792717086835) translate(-89.25, -89.25)" style="cursor: pointer;"><path d="M0,0 L0,178.5 L178.5,178.5 C178.5,80 98.5,0 0,0 Z" fill="#000000"></path></g><g transform="translate(1000, 200) rotate(270) scale(0.4481792717086835) translate(-89.25, -89.25)" style="cursor: pointer;"><rect x="0" y="0" width="178.5" height="178.5" fill="#E3EA00"></rect></g><g transform="translate(920, 440) rotate(180) scale(0.4481792717086835) translate(-89.25, -89.25)" style="cursor: pointer;"><path d="M0,0 L0,178.5 L178.5,178.5 C178.5,80 98.5,0 0,0 Z" fill="#E3EA00"></path></g><g transform="translate(680, 120) rotate(0) scale(0.4481792717086835) translate(-89.25, -89.25)" style="cursor: pointer;"><rect x="0" y="0" width="178.5" height="178.5" fill="#E3EA00"></rect></g><g transform="translate(680, 600) rotate(180) scale(0.4481792717086835) translate(-89.25, -89.25)" style="cursor: pointer;"><rect x="0" y="0" width="178.5" height="178.5" fill="#D5B4FB"></rect></g><g transform="translate(200, 120) rotate(0) scale(0.4481792717086835) translate(-89.25, -89.25)" style="cursor: pointer;"><rect x="0" y="0" width="178.5" height="178.5" fill="#D5B4FB"></rect></g><g transform="translate(600, -120) rotate(180) scale(0.4481792717086835) translate(-89.25, -89.25)" style="cursor: pointer;"><rect x="0" y="0" width="178.5" height="178.5" fill="#D5B4FB"></rect></g><g transform="translate(280, -120) rotate(180) scale(0.4481792717086835) translate(-89.25, -89.25)" style="cursor: pointer;"><path d="M0,0 L0,178.5 L178.5,178.5 C178.5,80 98.5,0 0,0 Z" fill="#E3EA00"></path></g><g transform="translate(280, 120) rotate(180) scale(0.4481792717086835) translate(-89.25, -89.25)" style="cursor: pointer;"><rect x="0" y="0" width="178.5" height="178.5" fill="#E3EA00"></rect></g><g transform="translate(-40, -120) rotate(270) scale(0.4481792717086835) translate(-89.25, -89.25)" style="cursor: pointer;"><rect x="0" y="0" width="178.5" height="178.5" fill="#283287"></rect></g><g transform="translate(840, 120) rotate(90) scale(0.4481792717086835) translate(-89.25, -89.25)" style="cursor: pointer;"><rect x="0" y="0" width="178.5" height="178.5" fill="#283287"></rect></g><g transform="translate(-40, -40) rotate(0) scale(0.4481792717086835) translate(-89.25, -89.25)" style="cursor: pointer;"><path d="M0,0 L0,178.5 L178.5,178.5 C178.5,80 98.5,0 0,0 Z" fill="#EFEEEA"></path></g><g transform="translate(40, 680) rotate(270) scale(0.4481792717086835) translate(-89.25, -89.25)" style="cursor: pointer;"><path d="M0,0 L0,178.5 L178.5,178.5 C178.5,80 98.5,0 0,0 Z" fill="#EFEEEA"></path></g><g transform="translate(760, 680) rotate(0) scale(0.4481792717086835) translate(-89.25, -89.25)" style="cursor: pointer;"><path d="M0,0 L0,178.5 L178.5,178.5 C178.5,80 98.5,0 0,0 Z" fill="#EFEEEA"></path></g><g transform="translate(280, 600) rotate(270) scale(0.4481792717086835) translate(-89.25, -89.25)" style="cursor: pointer;"><rect x="0" y="0" width="178.5" height="178.5" fill="#D5B4FB"></rect></g><g transform="translate(280, -360) rotate(270) scale(0.4481792717086835) translate(-89.25, -89.25)" style="cursor: pointer;"><rect x="0" y="0" width="178.5" height="178.5" fill="#283287"></rect></g><g transform="translate(920, 360) rotate(0) scale(0.4481792717086835) translate(-89.25, -89.25)" style="cursor: pointer;"><rect x="0" y="0" width="178.5" height="178.5" fill="#D5B4FB"></rect></g><g transform="translate(520, -120) rotate(270) scale(0.4481792717086835) translate(-89.25, -89.25)" style="cursor: pointer;"><path d="M0,0 L0,178.5 L178.5,178.5 C178.5,80 98.5,0 0,0 Z" fill="#D5B4FB"></path></g><g transform="translate(40, 440) rotate(270) scale(0.4481792717086835) translate(-89.25, -89.25)" style="cursor: pointer;"><rect x="0" y="0" width="178.5" height="178.5" fill="#D5B4FB"></rect></g><g transform="translate(520, 600) rotate(90) scale(0.4481792717086835) translate(-89.25, -89.25)" style="cursor: pointer;"><path d="M0,0 L0,178.5 L178.5,178.5 C178.5,80 98.5,0 0,0 Z" fill="#283287"></path></g><g transform="translate(440, 360) rotate(180) scale(0.4481792717086835) translate(-89.25, -89.25)" style="cursor: pointer;"><rect x="0" y="0" width="178.5" height="178.5" fill="#D5B4FB"></rect></g><g transform="translate(120, 200) rotate(90) scale(0.4481792717086835) translate(-89.25, -89.25)" style="cursor: pointer;"><rect x="0" y="0" width="178.5" height="178.5" fill="#EFEEEA"></rect></g><g transform="translate(1000, 360) rotate(0) scale(0.4481792717086835) translate(-89.25, -89.25)" style="cursor: pointer;"><path d="M0,0 L0,178.5 L178.5,178.5 C178.5,80 98.5,0 0,0 Z" fill="#EFEEEA"></path></g><g transform="translate(120, 120) rotate(180) scale(0.4481792717086835) translate(-89.25, -89.25)" style="cursor: pointer;"><rect x="0" y="0" width="178.5" height="178.5" fill="#000000"></rect></g><g transform="translate(40, -120) rotate(270) scale(0.4481792717086835) translate(-89.25, -89.25)" style="cursor: pointer;"><rect x="0" y="0" width="178.5" height="178.5" fill="#EFEEEA"></rect></g><g transform="translate(120, 40) rotate(180) scale(0.4481792717086835) translate(-89.25, -89.25)" style="cursor: pointer;"><path d="M0,0 L0,178.5 L178.5,178.5 C178.5,80 98.5,0 0,0 Z" fill="#D5B4FB"></path></g><g transform="translate(760, -280) rotate(180) scale(0.4481792717086835) translate(-89.25, -89.25)" style="cursor: pointer;"><rect x="0" y="0" width="178.5" height="178.5" fill="#EFEEEA"></rect></g><g transform="translate(680, -280) rotate(270) scale(0.4481792717086835) translate(-89.25, -89.25)" style="cursor: pointer;"><path d="M0,0 L0,178.5 L178.5,178.5 C178.5,80 98.5,0 0,0 Z" fill="#D5B4FB"></path></g><g transform="translate(360, -40) rotate(270) scale(0.4481792717086835) translate(-89.25, -89.25)" style="cursor: pointer;"><path d="M0,0 L0,178.5 L178.5,178.5 C178.5,80 98.5,0 0,0 Z" fill="#EFEEEA"></path></g><g transform="translate(760, 280) rotate(0) scale(0.4481792717086835) translate(-89.25, -89.25)" style="cursor: pointer;"><path d="M0,0 L0,178.5 L178.5,178.5 C178.5,80 98.5,0 0,0 Z" fill="#000000"></path></g><g transform="translate(920, -40) rotate(0) scale(0.4481792717086835) translate(-89.25, -89.25)" style="cursor: pointer;"><rect x="0" y="0" width="178.5" height="178.5" fill="#D5B4FB"></rect></g><g transform="translate(280, 520) rotate(270) scale(0.4481792717086835) translate(-89.25, -89.25)" style="cursor: pointer;"><rect x="0" y="0" width="178.5" height="178.5" fill="#D5B4FB"></rect></g><g transform="translate(1000, 520) rotate(270) scale(0.4481792717086835) translate(-89.25, -89.25)" style="cursor: pointer;"><rect x="0" y="0" width="178.5" height="178.5" fill="#283287"></rect></g><g transform="translate(440, -40) rotate(270) scale(0.4481792717086835) translate(-89.25, -89.25)" style="cursor: pointer;"><path d="M0,0 L0,178.5 L178.5,178.5 C178.5,80 98.5,0 0,0 Z" fill="#D5B4FB"></path></g><g transform="translate(1000, 280) rotate(0) scale(0.4481792717086835) translate(-89.25, -89.25)" style="cursor: pointer;"><path d="M0,0 L0,178.5 L178.5,178.5 C178.5,80 98.5,0 0,0 Z" fill="#283287"></path></g><g transform="translate(120, -40) rotate(180) scale(0.4481792717086835) translate(-89.25, -89.25)" style="cursor: pointer;"><rect x="0" y="0" width="178.5" height="178.5" fill="#283287"></rect></g><g transform="translate(520, -40) rotate(180) scale(0.4481792717086835) translate(-89.25, -89.25)" style="cursor: pointer;"><path d="M0,0 L0,178.5 L178.5,178.5 C178.5,80 98.5,0 0,0 Z" fill="#D5B4FB"></path></g><g transform="translate(200, 680) rotate(270) scale(0.4481792717086835) translate(-89.25, -89.25)" style="cursor: pointer;"><path d="M0,0 L0,178.5 L178.5,178.5 C178.5,80 98.5,0 0,0 Z" fill="#D5B4FB"></path></g><g transform="translate(40, 120) rotate(180) scale(0.4481792717086835) translate(-89.25, -89.25)" style="cursor: pointer;"><path d="M0,0 L0,178.5 L178.5,178.5 C178.5,80 98.5,0 0,0 Z" fill="#000000"></path></g><g transform="translate(200, 40) rotate(90) scale(0.4481792717086835) translate(-89.25, -89.25)" style="cursor: pointer;"><path d="M0,0 L0,178.5 L178.5,178.5 C178.5,80 98.5,0 0,0 Z" fill="#D5B4FB"></path></g><g transform="translate(840, -360) rotate(0) scale(0.4481792717086835) translate(-89.25, -89.25)" style="cursor: pointer;"><path d="M0,0 L0,178.5 L178.5,178.5 C178.5,80 98.5,0 0,0 Z" fill="#000000"></path></g><g transform="translate(760, -360) rotate(90) scale(0.4481792717086835) translate(-89.25, -89.25)" style="cursor: pointer;"><rect x="0" y="0" width="178.5" height="178.5" fill="#E3EA00"></rect></g><g transform="translate(360, 200) rotate(0) scale(0.4481792717086835) translate(-89.25, -89.25)" style="cursor: pointer;"><rect x="0" y="0" width="178.5" height="178.5" fill="#D5B4FB"></rect></g><g transform="translate(1000, 600) rotate(90) scale(0.4481792717086835) translate(-89.25, -89.25)" style="cursor: pointer;"><path d="M0,0 L0,178.5 L178.5,178.5 C178.5,80 98.5,0 0,0 Z" fill="#000000"></path></g><g transform="translate(920, 120) rotate(270) scale(0.4481792717086835) translate(-89.25, -89.25)" style="cursor: pointer;"><path d="M0,0 L0,178.5 L178.5,178.5 C178.5,80 98.5,0 0,0 Z" fill="#EFEEEA"></path></g><g transform="translate(440, 280) rotate(90) scale(0.4481792717086835) translate(-89.25, -89.25)" style="cursor: pointer;"><path d="M0,0 L0,178.5 L178.5,178.5 C178.5,80 98.5,0 0,0 Z" fill="#D5B4FB"></path></g><g transform="translate(-40, 280) rotate(180) scale(0.4481792717086835) translate(-89.25, -89.25)" style="cursor: pointer;"><rect x="0" y="0" width="178.5" height="178.5" fill="#EFEEEA"></rect></g><g transform="translate(920, 600) rotate(0) scale(0.4481792717086835) translate(-89.25, -89.25)" style="cursor: pointer;"><path d="M0,0 L0,178.5 L178.5,178.5 C178.5,80 98.5,0 0,0 Z" fill="#D5B4FB"></path></g><g transform="translate(600, 360) rotate(0) scale(0.4481792717086835) translate(-89.25, -89.25)" style="cursor: pointer;"><rect x="0" y="0" width="178.5" height="178.5" fill="#D5B4FB"></rect></g><g transform="translate(120, -120) rotate(90) scale(0.4481792717086835) translate(-89.25, -89.25)" style="cursor: pointer;"><path d="M0,0 L0,178.5 L178.5,178.5 C178.5,80 98.5,0 0,0 Z" fill="#283287"></path></g><g transform="translate(920, -360) rotate(180) scale(0.4481792717086835) translate(-89.25, -89.25)" style="cursor: pointer;"><rect x="0" y="0" width="178.5" height="178.5" fill="#EFEEEA"></rect></g><g transform="translate(360, 680) rotate(180) scale(0.4481792717086835) translate(-89.25, -89.25)" style="cursor: pointer;"><path d="M0,0 L0,178.5 L178.5,178.5 C178.5,80 98.5,0 0,0 Z" fill="#000000"></path></g><g transform="translate(920, 280) rotate(180) scale(0.4481792717086835) translate(-89.25, -89.25)" style="cursor: pointer;"><path d="M0,0 L0,178.5 L178.5,178.5 C178.5,80 98.5,0 0,0 Z" fill="#283287"></path></g><g transform="translate(40, -200) rotate(180) scale(0.4481792717086835) translate(-89.25, -89.25)" style="cursor: pointer;"><path d="M0,0 L0,178.5 L178.5,178.5 C178.5,80 98.5,0 0,0 Z" fill="#D5B4FB"></path></g><g transform="translate(280, 360) rotate(270) scale(0.4481792717086835) translate(-89.25, -89.25)" style="cursor: pointer;"><rect x="0" y="0" width="178.5" height="178.5" fill="#000000"></rect></g><g transform="translate(760, 600) rotate(180) scale(0.4481792717086835) translate(-89.25, -89.25)" style="cursor: pointer;"><path d="M0,0 L0,178.5 L178.5,178.5 C178.5,80 98.5,0 0,0 Z" fill="#E3EA00"></path></g><g transform="translate(520, 120) rotate(270) scale(0.4481792717086835) translate(-89.25, -89.25)" style="cursor: pointer;"><path d="M0,0 L0,178.5 L178.5,178.5 C178.5,80 98.5,0 0,0 Z" fill="#E3EA00"></path></g><g transform="translate(920, -280) rotate(0) scale(0.4481792717086835) translate(-89.25, -89.25)" style="cursor: pointer;"><path d="M0,0 L0,178.5 L178.5,178.5 C178.5,80 98.5,0 0,0 Z" fill="#000000"></path></g><g transform="translate(40, 600) rotate(0) scale(0.4481792717086835) translate(-89.25, -89.25)" style="cursor: pointer;"><path d="M0,0 L0,178.5 L178.5,178.5 C178.5,80 98.5,0 0,0 Z" fill="#E3EA00"></path></g><g transform="translate(600, 600) rotate(180) scale(0.4481792717086835) translate(-89.25, -89.25)" style="cursor: pointer;"><rect x="0" y="0" width="178.5" height="178.5" fill="#E3EA00"></rect></g><g transform="translate(920, 520) rotate(180) scale(0.4481792717086835) translate(-89.25, -89.25)" style="cursor: pointer;"><path d="M0,0 L0,178.5 L178.5,178.5 C178.5,80 98.5,0 0,0 Z" fill="#283287"></path></g><g transform="translate(840, -280) rotate(180) scale(0.4481792717086835) translate(-89.25, -89.25)" style="cursor: pointer;"><path d="M0,0 L0,178.5 L178.5,178.5 C178.5,80 98.5,0 0,0 Z" fill="#EFEEEA"></path></g><g transform="translate(440, 440) rotate(270) scale(0.4481792717086835) translate(-89.25, -89.25)" style="cursor: pointer;"><path d="M0,0 L0,178.5 L178.5,178.5 C178.5,80 98.5,0 0,0 Z" fill="#000000"></path></g><g transform="translate(1000, 120) rotate(180) scale(0.4481792717086835) translate(-89.25, -89.25)" style="cursor: pointer;"><rect x="0" y="0" width="178.5" height="178.5" fill="#000000"></rect></g><g transform="translate(120, 680) rotate(0) scale(0.4481792717086835) translate(-89.25, -89.25)" style="cursor: pointer;"><rect x="0" y="0" width="178.5" height="178.5" fill="#E3EA00"></rect></g><g transform="translate(200, 200) rotate(270) scale(0.4481792717086835) translate(-89.25, -89.25)" style="cursor: pointer;"><path d="M0,0 L0,178.5 L178.5,178.5 C178.5,80 98.5,0 0,0 Z" fill="#EFEEEA"></path></g><g transform="translate(520, 280) rotate(90) scale(0.4481792717086835) translate(-89.25, -89.25)" style="cursor: pointer;"><rect x="0" y="0" width="178.5" height="178.5" fill="#D5B4FB"></rect></g><g transform="translate(-40, 200) rotate(0) scale(0.4481792717086835) translate(-89.25, -89.25)" style="cursor: pointer;"><path d="M0,0 L0,178.5 L178.5,178.5 C178.5,80 98.5,0 0,0 Z" fill="#D5B4FB"></path></g><g transform="translate(600, -280) rotate(0) scale(0.4481792717086835) translate(-89.25, -89.25)" style="cursor: pointer;"><rect x="0" y="0" width="178.5" height="178.5" fill="#E3EA00"></rect></g><g transform="translate(760, 440) rotate(180) scale(0.4481792717086835) translate(-89.25, -89.25)" style="cursor: pointer;"><rect x="0" y="0" width="178.5" height="178.5" fill="#E3EA00"></rect></g><g transform="translate(280, -280) rotate(90) scale(0.4481792717086835) translate(-89.25, -89.25)" style="cursor: pointer;"><rect x="0" y="0" width="178.5" height="178.5" fill="#D5B4FB"></rect></g><g transform="translate(520, 40) rotate(270) scale(0.4481792717086835) translate(-89.25, -89.25)" style="cursor: pointer;"><rect x="0" y="0" width="178.5" height="178.5" fill="#000000"></rect></g><g transform="translate(1000, 40) rotate(270) scale(0.4481792717086835) translate(-89.25, -89.25)" style="cursor: pointer;"><rect x="0" y="0" width="178.5" height="178.5" fill="#000000"></rect></g><g transform="translate(120, 440) rotate(270) scale(0.4481792717086835) translate(-89.25, -89.25)" style="cursor: pointer;"><path d="M0,0 L0,178.5 L178.5,178.5 C178.5,80 98.5,0 0,0 Z" fill="#D5B4FB"></path></g><g transform="translate(680, -120) rotate(270) scale(0.4481792717086835) translate(-89.25, -89.25)" style="cursor: pointer;"><path d="M0,0 L0,178.5 L178.5,178.5 C178.5,80 98.5,0 0,0 Z" fill="#EFEEEA"></path></g><g transform="translate(680, 680) rotate(180) scale(0.4481792717086835) translate(-89.25, -89.25)" style="cursor: pointer;"><path d="M0,0 L0,178.5 L178.5,178.5 C178.5,80 98.5,0 0,0 Z" fill="#EFEEEA"></path></g><g transform="translate(360, -120) rotate(180) scale(0.4481792717086835) translate(-89.25, -89.25)" style="cursor: pointer;"><rect x="0" y="0" width="178.5" height="178.5" fill="#283287"></rect></g><g transform="translate(440, 680) rotate(90) scale(0.4481792717086835) translate(-89.25, -89.25)" style="cursor: pointer;"><rect x="0" y="0" width="178.5" height="178.5" fill="#EFEEEA"></rect></g><g transform="translate(440, -200) rotate(180) scale(0.4481792717086835) translate(-89.25, -89.25)" style="cursor: pointer;"><path d="M0,0 L0,178.5 L178.5,178.5 C178.5,80 98.5,0 0,0 Z" fill="#EFEEEA"></path></g><g transform="translate(-40, -360) rotate(0) scale(0.4481792717086835) translate(-89.25, -89.25)" style="cursor: pointer;"><rect x="0" y="0" width="178.5" height="178.5" fill="#283287"></rect></g><g transform="translate(40, 520) rotate(0) scale(0.4481792717086835) translate(-89.25, -89.25)" style="cursor: pointer;"><rect x="0" y="0" width="178.5" height="178.5" fill="#000000"></rect></g><g transform="translate(120, 360) rotate(270) scale(0.4481792717086835) translate(-89.25, -89.25)" style="cursor: pointer;"><rect x="0" y="0" width="178.5" height="178.5" fill="#283287"></rect></g><g transform="translate(280, 40) rotate(90) scale(0.4481792717086835) translate(-89.25, -89.25)" style="cursor: pointer;"><rect x="0" y="0" width="178.5" height="178.5" fill="#EFEEEA"></rect></g><g transform="translate(280, -200) rotate(90) scale(0.4481792717086835) translate(-89.25, -89.25)" style="cursor: pointer;"><path d="M0,0 L0,178.5 L178.5,178.5 C178.5,80 98.5,0 0,0 Z" fill="#000000"></path></g><g transform="translate(760, -120) rotate(0) scale(0.4481792717086835) translate(-89.25, -89.25)" style="cursor: pointer;"><rect x="0" y="0" width="178.5" height="178.5" fill="#000000"></rect></g><g transform="translate(440, 600) rotate(180) scale(0.4481792717086835) translate(-89.25, -89.25)" style="cursor: pointer;"><rect x="0" y="0" width="178.5" height="178.5" fill="#E3EA00"></rect></g><g transform="translate(200, 280) rotate(180) scale(0.4481792717086835) translate(-89.25, -89.25)" style="cursor: pointer;"><path d="M0,0 L0,178.5 L178.5,178.5 C178.5,80 98.5,0 0,0 Z" fill="#000000"></path></g><g transform="translate(680, 360) rotate(180) scale(0.4481792717086835) translate(-89.25, -89.25)" style="cursor: pointer;"><path d="M0,0 L0,178.5 L178.5,178.5 C178.5,80 98.5,0 0,0 Z" fill="#EFEEEA"></path></g><g transform="translate(280, 680) rotate(0) scale(0.4481792717086835) translate(-89.25, -89.25)" style="cursor: pointer;"><path d="M0,0 L0,178.5 L178.5,178.5 C178.5,80 98.5,0 0,0 Z" fill="#E3EA00"></path></g><g transform="translate(600, 280) rotate(0) scale(0.4481792717086835) translate(-89.25, -89.25)" style="cursor: pointer;"><rect x="0" y="0" width="178.5" height="178.5" fill="#D5B4FB"></rect></g><g transform="translate(680, -40) rotate(0) scale(0.4481792717086835) translate(-89.25, -89.25)" style="cursor: pointer;"><path d="M0,0 L0,178.5 L178.5,178.5 C178.5,80 98.5,0 0,0 Z" fill="#EFEEEA"></path></g><g transform="translate(920, -200) rotate(90) scale(0.4481792717086835) translate(-89.25, -89.25)" style="cursor: pointer;"><rect x="0" y="0" width="178.5" height="178.5" fill="#283287"></rect></g><g transform="translate(40, 360) rotate(180) scale(0.4481792717086835) translate(-89.25, -89.25)" style="cursor: pointer;"><rect x="0" y="0" width="178.5" height="178.5" fill="#E3EA00"></rect></g><g transform="translate(680, 280) rotate(90) scale(0.4481792717086835) translate(-89.25, -89.25)" style="cursor: pointer;"><path d="M0,0 L0,178.5 L178.5,178.5 C178.5,80 98.5,0 0,0 Z" fill="#283287"></path></g><g transform="translate(760, 520) rotate(180) scale(0.4481792717086835) translate(-89.25, -89.25)" style="cursor: pointer;"><rect x="0" y="0" width="178.5" height="178.5" fill="#D5B4FB"></rect></g><g transform="translate(840, 200) rotate(180) scale(0.4481792717086835) translate(-89.25, -89.25)" style="cursor: pointer;"><path d="M0,0 L0,178.5 L178.5,178.5 C178.5,80 98.5,0 0,0 Z" fill="#000000"></path></g><g transform="translate(760, -200) rotate(0) scale(0.4481792717086835) translate(-89.25, -89.25)" style="cursor: pointer;"><rect x="0" y="0" width="178.5" height="178.5" fill="#E3EA00"></rect></g><g transform="translate(600, 120) rotate(90) scale(0.4481792717086835) translate(-89.25, -89.25)" style="cursor: pointer;"><path d="M0,0 L0,178.5 L178.5,178.5 C178.5,80 98.5,0 0,0 Z" fill="#D5B4FB"></path></g><g transform="translate(600, -200) rotate(0) scale(0.4481792717086835) translate(-89.25, -89.25)" style="cursor: pointer;"><path d="M0,0 L0,178.5 L178.5,178.5 C178.5,80 98.5,0 0,0 Z" fill="#283287"></path></g><g transform="translate(520, 360) rotate(270) scale(0.4481792717086835) translate(-89.25, -89.25)" style="cursor: pointer;"><rect x="0" y="0" width="178.5" height="178.5" fill="#000000"></rect></g><g transform="translate(840, 600) rotate(180) scale(0.4481792717086835) translate(-89.25, -89.25)" style="cursor: pointer;"><rect x="0" y="0" width="178.5" height="178.5" fill="#E3EA00"></rect></g><g transform="translate(440, 40) rotate(90) scale(0.4481792717086835) translate(-89.25, -89.25)" style="cursor: pointer;"><path d="M0,0 L0,178.5 L178.5,178.5 C178.5,80 98.5,0 0,0 Z" fill="#000000"></path></g><g transform="translate(-40, 520) rotate(0) scale(0.4481792717086835) translate(-89.25, -89.25)" style="cursor: pointer;"><path d="M0,0 L0,178.5 L178.5,178.5 C178.5,80 98.5,0 0,0 Z" fill="#283287"></path></g><g transform="translate(200, -360) rotate(0) scale(0.4481792717086835) translate(-89.25, -89.25)" style="cursor: pointer;"><rect x="0" y="0" width="178.5" height="178.5" fill="#EFEEEA"></rect></g><g transform="translate(280, 440) rotate(180) scale(0.4481792717086835) translate(-89.25, -89.25)" style="cursor: pointer;"><path d="M0,0 L0,178.5 L178.5,178.5 C178.5,80 98.5,0 0,0 Z" fill="#000000"></path></g><g transform="translate(360, 360) rotate(0) scale(0.4481792717086835) translate(-89.25, -89.25)" style="cursor: pointer;"><path d="M0,0 L0,178.5 L178.5,178.5 C178.5,80 98.5,0 0,0 Z" fill="#000000"></path></g><g transform="translate(440, 120) rotate(180) scale(0.4481792717086835) translate(-89.25, -89.25)" style="cursor: pointer;"><path d="M0,0 L0,178.5 L178.5,178.5 C178.5,80 98.5,0 0,0 Z" fill="#D5B4FB"></path></g><g transform="translate(40, -40) rotate(270) scale(0.4481792717086835) translate(-89.25, -89.25)" style="cursor: pointer;"><rect x="0" y="0" width="178.5" height="178.5" fill="#E3EA00"></rect></g><g transform="translate(440, -280) rotate(180) scale(0.4481792717086835) translate(-89.25, -89.25)" style="cursor: pointer;"><path d="M0,0 L0,178.5 L178.5,178.5 C178.5,80 98.5,0 0,0 Z" fill="#EFEEEA"></path></g><g transform="translate(40, 40) rotate(90) scale(0.4481792717086835) translate(-89.25, -89.25)" style="cursor: pointer;"><rect x="0" y="0" width="178.5" height="178.5" fill="#D5B4FB"></rect></g><g transform="translate(200, -40) rotate(90) scale(0.4481792717086835) translate(-89.25, -89.25)" style="cursor: pointer;"><path d="M0,0 L0,178.5 L178.5,178.5 C178.5,80 98.5,0 0,0 Z" fill="#283287"></path></g><g transform="translate(840, 40) rotate(0) scale(0.4481792717086835) translate(-89.25, -89.25)" style="cursor: pointer;"><rect x="0" y="0" width="178.5" height="178.5" fill="#D5B4FB"></rect></g><g transform="translate(-40, 440) rotate(0) scale(0.4481792717086835) translate(-89.25, -89.25)" style="cursor: pointer;"><path d="M0,0 L0,178.5 L178.5,178.5 C178.5,80 98.5,0 0,0 Z" fill="#EFEEEA"></path></g><g transform="translate(1000, 680) rotate(180) scale(0.4481792717086835) translate(-89.25, -89.25)" style="cursor: pointer;"><path d="M0,0 L0,178.5 L178.5,178.5 C178.5,80 98.5,0 0,0 Z" fill="#283287"></path></g><g transform="translate(-40, 680) rotate(270) scale(0.4481792717086835) translate(-89.25, -89.25)" style="cursor: pointer;"><path d="M0,0 L0,178.5 L178.5,178.5 C178.5,80 98.5,0 0,0 Z" fill="#EFEEEA"></path></g><g transform="translate(200, -280) rotate(0) scale(0.4481792717086835) translate(-89.25, -89.25)" style="cursor: pointer;"><path d="M0,0 L0,178.5 L178.5,178.5 C178.5,80 98.5,0 0,0 Z" fill="#EFEEEA"></path></g><g transform="translate(200, 600) rotate(0) scale(0.4481792717086835) translate(-89.25, -89.25)" style="cursor: pointer;"><path d="M0,0 L0,178.5 L178.5,178.5 C178.5,80 98.5,0 0,0 Z" fill="#000000"></path></g><g transform="translate(440, 200) rotate(270) scale(0.4481792717086835) translate(-89.25, -89.25)" style="cursor: pointer;"><path d="M0,0 L0,178.5 L178.5,178.5 C178.5,80 98.5,0 0,0 Z" fill="#000000"></path></g><g transform="translate(40, -280) rotate(270) scale(0.4481792717086835) translate(-89.25, -89.25)" style="cursor: pointer;"><path d="M0,0 L0,178.5 L178.5,178.5 C178.5,80 98.5,0 0,0 Z" fill="#E3EA00"></path></g><g transform="translate(200, 440) rotate(270) scale(0.4481792717086835) translate(-89.25, -89.25)" style="cursor: pointer;"><rect x="0" y="0" width="178.5" height="178.5" fill="#EFEEEA"></rect></g><g transform="translate(680, 440) rotate(180) scale(0.4481792717086835) translate(-89.25, -89.25)" style="cursor: pointer;"><rect x="0" y="0" width="178.5" height="178.5" fill="#D5B4FB"></rect></g><g transform="translate(680, 520) rotate(270) scale(0.4481792717086835) translate(-89.25, -89.25)" style="cursor: pointer;"><rect x="0" y="0" width="178.5" height="178.5" fill="#000000"></rect></g><g transform="translate(520, -200) rotate(180) scale(0.4481792717086835) translate(-89.25, -89.25)" style="cursor: pointer;"><rect x="0" y="0" width="178.5" height="178.5" fill="#E3EA00"></rect></g><g transform="translate(200, 360) rotate(270) scale(0.4481792717086835) translate(-89.25, -89.25)" style="cursor: pointer;"><rect x="0" y="0" width="178.5" height="178.5" fill="#E3EA00"></rect></g><g transform="translate(-40, 360) rotate(90) scale(0.4481792717086835) translate(-89.25, -89.25)" style="cursor: pointer;"><rect x="0" y="0" width="178.5" height="178.5" fill="#000000"></rect></g><g transform="translate(360, 280) rotate(90) scale(0.4481792717086835) translate(-89.25, -89.25)" style="cursor: pointer;"><rect x="0" y="0" width="178.5" height="178.5" fill="#E3EA00"></rect></g><g transform="translate(360, 120) rotate(90) scale(0.4481792717086835) translate(-89.25, -89.25)" style="cursor: pointer;"><rect x="0" y="0" width="178.5" height="178.5" fill="#D5B4FB"></rect></g><g transform="translate(120, -360) rotate(0) scale(0.4481792717086835) translate(-89.25, -89.25)" style="cursor: pointer;"><path d="M0,0 L0,178.5 L178.5,178.5 C178.5,80 98.5,0 0,0 Z" fill="#EFEEEA"></path></g><g transform="translate(920, 680) rotate(90) scale(0.4481792717086835) translate(-89.25, -89.25)" style="cursor: pointer;"><rect x="0" y="0" width="178.5" height="178.5" fill="#E3EA00"></rect></g><g transform="translate(360, -200) rotate(0) scale(0.4481792717086835) translate(-89.25, -89.25)" style="cursor: pointer;"><path d="M0,0 L0,178.5 L178.5,178.5 C178.5,80 98.5,0 0,0 Z" fill="#D5B4FB"></path></g><g transform="translate(680, -360) rotate(270) scale(0.4481792717086835) translate(-89.25, -89.25)" style="cursor: pointer;"><path d="M0,0 L0,178.5 L178.5,178.5 C178.5,80 98.5,0 0,0 Z" fill="#D5B4FB"></path></g><g transform="translate(600, 200) rotate(0) scale(0.4481792717086835) translate(-89.25, -89.25)" style="cursor: pointer;"><rect x="0" y="0" width="178.5" height="178.5" fill="#283287"></rect></g><g transform="translate(760, -40) rotate(90) scale(0.4481792717086835) translate(-89.25, -89.25)" style="cursor: pointer;"><rect x="0" y="0" width="178.5" height="178.5" fill="#E3EA00"></rect></g><g transform="translate(200, 520) rotate(0) scale(0.4481792717086835) translate(-89.25, -89.25)" style="cursor: pointer;"><rect x="0" y="0" width="178.5" height="178.5" fill="#E3EA00"></rect></g><g transform="translate(840, 440) rotate(180) scale(0.4481792717086835) translate(-89.25, -89.25)" style="cursor: pointer;"><path d="M0,0 L0,178.5 L178.5,178.5 C178.5,80 98.5,0 0,0 Z" fill="#EFEEEA"></path></g><g transform="translate(600, 440) rotate(180) scale(0.4481792717086835) translate(-89.25, -89.25)" style="cursor: pointer;"><path d="M0,0 L0,178.5 L178.5,178.5 C178.5,80 98.5,0 0,0 Z" fill="#EFEEEA"></path></g><g transform="translate(360, 600) rotate(90) scale(0.4481792717086835) translate(-89.25, -89.25)" style="cursor: pointer;"><path d="M0,0 L0,178.5 L178.5,178.5 C178.5,80 98.5,0 0,0 Z" fill="#EFEEEA"></path></g><g transform="translate(600, 520) rotate(180) scale(0.4481792717086835) translate(-89.25, -89.25)" style="cursor: pointer;"><rect x="0" y="0" width="178.5" height="178.5" fill="#EFEEEA"></rect></g></g></svg>